# xmcd
#
# Track frame offsets: 
#        150
#        17375
#        36845
#        55325
#        70810
#        87276
#        101631
#        121593
#        138557
#        157729
#        173666
#        193571
#        207103
#        223345
#        245367
#
# Disc length: 3477 seconds
#
# Revision: 0
# Processed by: cddbd v1.5.2PL0 Copyright (c) Steve Scherf et al.
# Submitted via: ExactAudioCopy v1.3
#
DISCID=c50d930f
DTITLE=Various Artist - 昭和 永遠の名曲大全集 1946-1963 Disc 1 COCP-40151-4
DYEAR=1900
DGENRE=JPop
TTITLE0=並木路子 - リンゴの唄
TTITLE1=二葉あき子 - 夜のプラットホーム
TTITLE2=藤山一郎 - 夢淡き東京
TTITLE3=近江俊郎 - 山小舎の灯
TTITLE4=高峰三枝子 - 懐しのブルース
TTITLE5=笠置シヅ子 - 東京ブギウギ
TTITLE6=二葉あき子 - フランチェスカの鐘
TTITLE7=霧島昇 - 三百六十五夜
TTITLE8=近江俊郎 - 湯の町エレジー
TTITLE9=藤山一郎 - 青い山脈
TTITLE10=藤山一郎 - 長崎の鐘
TTITLE11=美空ひばり - 悲しき口笛
TTITLE12=伊藤久男 - イヨマンテの夜
TTITLE13=二葉あき子 - 水色のワルツ
TTITLE14=笠置シヅ子 - 買物ブギー
EXTD=
EXTT0=
EXTT1=
EXTT2=
EXTT3=
EXTT4=
EXTT5=
EXTT6=
EXTT7=
EXTT8=
EXTT9=
EXTT10=
EXTT11=
EXTT12=
EXTT13=
EXTT14=
PLAYORDER=
